<?xml version="1.0" encoding="UTF-8" standalone="no"?>
<!-- Generator: Adobe Illustrator 16.0.0, SVG Export Plug-In . SVG Version: 6.00 Build 0)  -->

<svg
   xmlns:dc="http://purl.org/dc/elements/1.1/"
   xmlns:cc="http://creativecommons.org/ns#"
   xmlns:rdf="http://www.w3.org/1999/02/22-rdf-syntax-ns#"
   xmlns:svg="http://www.w3.org/2000/svg"
   xmlns="http://www.w3.org/2000/svg"
   xmlns:sodipodi="http://sodipodi.sourceforge.net/DTD/sodipodi-0.dtd"
   xmlns:inkscape="http://www.inkscape.org/namespaces/inkscape"
   version="1.1"
   id="Layer_1"
   x="0px"
   y="0px"
   width="98.209px"
   height="93.095px"
   viewBox="0 0 98.209 93.095"
   enable-background="new 0 0 98.209 93.095"
   xml:space="preserve"
   inkscape:version="0.91 r13725"
   sodipodi:docname="osmd_logo.svg"><metadata
     id="metadata4159"><rdf:RDF><cc:Work
         rdf:about=""><dc:format>image/svg+xml</dc:format><dc:type
           rdf:resource="http://purl.org/dc/dcmitype/StillImage" /><dc:title></dc:title></cc:Work></rdf:RDF></metadata><defs
     id="defs4157" /><sodipodi:namedview
     pagecolor="#ffffff"
     bordercolor="#666666"
     borderopacity="1"
     objecttolerance="10"
     gridtolerance="10"
     guidetolerance="10"
     inkscape:pageopacity="0"
     inkscape:pageshadow="2"
     inkscape:window-width="1920"
     inkscape:window-height="1017"
     id="namedview4155"
     showgrid="false"
     inkscape:zoom="4.565229"
     inkscape:cx="78.568466"
     inkscape:cy="48.37972"
     inkscape:window-x="-8"
     inkscape:window-y="-8"
     inkscape:window-maximized="1"
     inkscape:current-layer="Layer_1" /><path
     fill-rule="evenodd"
     clip-rule="evenodd"
     fill="#EB6101"
     d="M8.811,51.666v-8.818c1.796-0.101,3.141-0.364,4.058-0.816  c0.905-0.439,1.684-1.181,2.35-2.224s1.118-2.349,1.369-3.919c0.189-1.181,0.29-3.229,0.29-6.155c0-4.761,0.226-8.078,0.666-9.962  c0.439-1.884,1.23-3.392,2.387-4.535c1.155-1.144,2.839-2.035,5.037-2.701c1.496-0.44,3.856-0.666,7.073-0.666h1.947v8.818  c-2.738,0-4.485,0.15-5.263,0.464c-0.779,0.302-1.344,0.767-1.722,1.395c-0.364,0.628-0.553,1.696-0.553,3.216  c0,1.544-0.1,4.484-0.301,8.794c-0.125,2.437-0.439,4.396-0.955,5.917c-0.515,1.507-1.168,2.75-1.972,3.731  c-0.792,0.98-2.01,1.998-3.656,3.053c1.457,0.829,2.638,1.809,3.567,2.927s1.633,2.475,2.124,4.07  c0.502,1.595,0.816,3.743,0.966,6.419c0.151,4.07,0.227,6.683,0.227,7.813c0,1.62,0.201,2.751,0.591,3.392  c0.389,0.628,0.979,1.118,1.783,1.445c0.792,0.339,2.513,0.502,5.164,0.502v8.818h-1.947c-3.316,0-5.854-0.263-7.626-0.791  c-1.758-0.528-3.253-1.406-4.459-2.638c-1.219-1.219-2.036-2.739-2.45-4.548c-0.414-1.796-0.627-4.648-0.627-8.53  c0-4.51-0.201-7.449-0.591-8.793c-0.54-1.973-1.357-3.38-2.449-4.221C12.743,52.27,11.072,51.792,8.811,51.666z"
     id="path4137" /><rect
     x="33.298"
     y="11.865"
     fill-rule="evenodd"
     clip-rule="evenodd"
     fill="#EB6101"
     width="11.062"
     height="46.519"
     id="rect4139" /><rect
     x="38.101"
     y="36.107"
     fill-rule="evenodd"
     clip-rule="evenodd"
     fill="#EB6101"
     width="1.457"
     height="46.519"
     id="rect4141" /><path
     fill-rule="evenodd"
     clip-rule="evenodd"
     fill="#EB6101"
     d="M90.706,51.666v-8.818c-1.796-0.101-3.141-0.364-4.058-0.816  c-0.904-0.439-1.684-1.181-2.349-2.224c-0.666-1.042-1.118-2.349-1.369-3.919c-0.189-1.181-0.29-3.229-0.29-6.155  c0-4.761-0.226-8.078-0.666-9.962c-0.439-1.884-1.23-3.392-2.387-4.535c-1.156-1.144-2.839-2.035-5.037-2.701  c-1.496-0.44-3.857-0.666-7.073-0.666h-1.947v8.818c2.738,0,4.485,0.15,5.263,0.464c0.779,0.302,1.344,0.767,1.722,1.395  c0.364,0.628,0.553,1.696,0.553,3.216c0,1.544,0.1,4.484,0.301,8.794c0.125,2.437,0.44,4.396,0.956,5.917  c0.514,1.507,1.167,2.75,1.972,3.731c0.792,0.98,2.01,1.998,3.655,3.053c-1.457,0.829-2.638,1.809-3.567,2.927  c-0.929,1.118-1.633,2.475-2.123,4.07c-0.502,1.595-0.816,3.743-0.967,6.419c-0.151,4.07-0.226,6.683-0.226,7.813  c0,1.62-0.201,2.751-0.591,3.392c-0.389,0.628-0.979,1.118-1.783,1.445c-0.791,0.339-2.513,0.502-5.163,0.502v8.818h1.947  c3.316,0,5.854-0.263,7.626-0.791c1.758-0.528,3.253-1.406,4.459-2.638c1.219-1.219,2.035-2.739,2.45-4.548  c0.414-1.796,0.627-4.648,0.627-8.53c0-4.51,0.201-7.449,0.591-8.793c0.54-1.973,1.357-3.38,2.449-4.221  C86.774,52.27,88.445,51.792,90.706,51.666z"
     id="path4143" /><rect
     x="55.156"
     y="11.865"
     fill-rule="evenodd"
     clip-rule="evenodd"
     fill="#EB6101"
     width="11.062"
     height="46.519"
     id="rect4145" /><rect
     x="59.959"
     y="36.107"
     fill-rule="evenodd"
     clip-rule="evenodd"
     fill="#EB6101"
     width="1.456"
     height="46.519"
     id="rect4147" /></svg>